<svg xmlns="http://www.w3.org/2000/svg" xmlns:xlink="http://www.w3.org/1999/xlink" contentStyleType="text/css" height="1001px" preserveAspectRatio="none" style="width:930px;height:1001px;background:#FFFFFF;" version="1.1" viewBox="0 0 930 1001" width="930px" zoomAndPan="magnify"><defs/><g><!--class worker--><g id="elem_worker"><rect codeLine="2" fill="#F1F1F1" height="141.1055" id="worker" rx="2.5" ry="2.5" style="stroke:#181818;stroke-width:0.5;" width="117.8408" x="525" y="252"/><ellipse cx="559.7253" cy="268" fill="#ADD1B2" rx="11" ry="11" style="stroke:#181818;stroke-width:1.0;"/><path d="M562.4909,263.875 Q562.6472,263.6563 562.8347,263.5469 Q563.0222,263.4375 563.2409,263.4375 Q563.6159,263.4375 563.8503,263.7031 Q564.0847,263.9531 564.0847,264.5625 L564.0847,266.0156 Q564.0847,266.625 563.8503,266.8906 Q563.6159,267.1563 563.2409,267.1563 Q562.8972,267.1563 562.694,266.9531 Q562.4909,266.7656 562.3815,266.25 Q562.3347,265.8906 562.1472,265.7031 Q561.819,265.3281 561.2097,265.1094 Q560.6003,264.8906 559.9753,264.8906 Q559.2097,264.8906 558.569,265.2188 Q557.944,265.5469 557.444,266.2969 Q556.9597,267.0469 556.9597,268.0781 L556.9597,269.1719 Q556.9597,270.4063 557.8503,271.2344 Q558.7409,272.0469 560.3347,272.0469 Q561.2722,272.0469 561.9284,271.7969 Q562.319,271.6406 562.7409,271.2031 Q563.0065,270.9375 563.1472,270.8594 Q563.3034,270.7813 563.5065,270.7813 Q563.8347,270.7813 564.0847,271.0469 Q564.3503,271.2969 564.3503,271.6406 Q564.3503,271.9844 564.0065,272.3906 Q563.5065,272.9688 562.7097,273.2969 Q561.6315,273.75 560.3347,273.75 Q558.819,273.75 557.6159,273.125 Q556.6315,272.625 555.944,271.5625 Q555.2565,270.4844 555.2565,269.2031 L555.2565,268.0469 Q555.2565,266.7188 555.8659,265.5781 Q556.4909,264.4219 557.5847,263.8125 Q558.6784,263.1875 559.9128,263.1875 Q560.6472,263.1875 561.2878,263.3594 Q561.944,263.5156 562.4909,263.875 Z " fill="#000000"/><text fill="#000000" font-family="sans-serif" font-size="14" lengthAdjust="spacing" textLength="42.0068" x="578.1087" y="273.7969">worker</text><line style="stroke:#181818;stroke-width:0.5;" x1="526" x2="641.8408" y1="284" y2="284"/><rect fill="none" height="6" style="stroke:#C82930;stroke-width:1.0;" width="6" x="533" y="295.8105"/><text fill="#000000" font-family="sans-serif" font-size="14" lengthAdjust="spacing" textLength="11.6758" x="545" y="303.1074">Id</text><rect fill="none" height="6" style="stroke:#C82930;stroke-width:1.0;" width="6" x="533" y="314.4316"/><text fill="#000000" font-family="sans-serif" font-size="14" lengthAdjust="spacing" textLength="37.3447" x="545" y="321.7285">Name</text><rect fill="none" height="6" style="stroke:#C82930;stroke-width:1.0;" width="6" x="533" y="333.0527"/><text fill="#000000" font-family="sans-serif" font-size="14" lengthAdjust="spacing" textLength="84.8203" x="545" y="340.3496">Postal adress</text><rect fill="none" height="6" style="stroke:#C82930;stroke-width:1.0;" width="6" x="533" y="351.6738"/><text fill="#000000" font-family="sans-serif" font-size="14" lengthAdjust="spacing" textLength="91.8408" x="545" y="358.9707">Phone number</text><rect fill="none" height="6" style="stroke:#C82930;stroke-width:1.0;" width="6" x="533" y="370.2949"/><text fill="#000000" font-family="sans-serif" font-size="14" lengthAdjust="spacing" textLength="35.0068" x="545" y="377.5918">Email</text><line style="stroke:#181818;stroke-width:0.5;" x1="526" x2="641.8408" y1="385.1055" y2="385.1055"/></g><!--class Nurse--><g id="elem_Nurse"><rect codeLine="10" fill="#F1F1F1" height="48" id="Nurse" rx="2.5" ry="2.5" style="stroke:#181818;stroke-width:0.5;" width="69.3447" x="709.5" y="636"/><ellipse cx="724.5" cy="652" fill="#ADD1B2" rx="11" ry="11" style="stroke:#181818;stroke-width:1.0;"/><path d="M727.2656,647.875 Q727.4219,647.6563 727.6094,647.5469 Q727.7969,647.4375 728.0156,647.4375 Q728.3906,647.4375 728.625,647.7031 Q728.8594,647.9531 728.8594,648.5625 L728.8594,650.0156 Q728.8594,650.625 728.625,650.8906 Q728.3906,651.1563 728.0156,651.1563 Q727.6719,651.1563 727.4688,650.9531 Q727.2656,650.7656 727.1563,650.25 Q727.1094,649.8906 726.9219,649.7031 Q726.5938,649.3281 725.9844,649.1094 Q725.375,648.8906 724.75,648.8906 Q723.9844,648.8906 723.3438,649.2188 Q722.7188,649.5469 722.2188,650.2969 Q721.7344,651.0469 721.7344,652.0781 L721.7344,653.1719 Q721.7344,654.4063 722.625,655.2344 Q723.5156,656.0469 725.1094,656.0469 Q726.0469,656.0469 726.7031,655.7969 Q727.0938,655.6406 727.5156,655.2031 Q727.7813,654.9375 727.9219,654.8594 Q728.0781,654.7813 728.2813,654.7813 Q728.6094,654.7813 728.8594,655.0469 Q729.125,655.2969 729.125,655.6406 Q729.125,655.9844 728.7813,656.3906 Q728.2813,656.9688 727.4844,657.2969 Q726.4063,657.75 725.1094,657.75 Q723.5938,657.75 722.3906,657.125 Q721.4063,656.625 720.7188,655.5625 Q720.0313,654.4844 720.0313,653.2031 L720.0313,652.0469 Q720.0313,650.7188 720.6406,649.5781 Q721.2656,648.4219 722.3594,647.8125 Q723.4531,647.1875 724.6875,647.1875 Q725.4219,647.1875 726.0625,647.3594 Q726.7188,647.5156 727.2656,647.875 Z " fill="#000000"/><text fill="#000000" font-family="sans-serif" font-size="14" lengthAdjust="spacing" textLength="37.3447" x="738.5" y="657.7969">Nurse</text><line style="stroke:#181818;stroke-width:0.5;" x1="710.5" x2="777.8447" y1="668" y2="668"/><line style="stroke:#181818;stroke-width:0.5;" x1="710.5" x2="777.8447" y1="676" y2="676"/></g><!--class Receptionist--><g id="elem_Receptionist"><rect codeLine="13" fill="#F1F1F1" height="48" id="Receptionist" rx="2.5" ry="2.5" style="stroke:#181818;stroke-width:0.5;" width="109.041" x="814.5" y="636"/><ellipse cx="829.5" cy="652" fill="#ADD1B2" rx="11" ry="11" style="stroke:#181818;stroke-width:1.0;"/><path d="M832.2656,647.875 Q832.4219,647.6563 832.6094,647.5469 Q832.7969,647.4375 833.0156,647.4375 Q833.3906,647.4375 833.625,647.7031 Q833.8594,647.9531 833.8594,648.5625 L833.8594,650.0156 Q833.8594,650.625 833.625,650.8906 Q833.3906,651.1563 833.0156,651.1563 Q832.6719,651.1563 832.4688,650.9531 Q832.2656,650.7656 832.1563,650.25 Q832.1094,649.8906 831.9219,649.7031 Q831.5938,649.3281 830.9844,649.1094 Q830.375,648.8906 829.75,648.8906 Q828.9844,648.8906 828.3438,649.2188 Q827.7188,649.5469 827.2188,650.2969 Q826.7344,651.0469 826.7344,652.0781 L826.7344,653.1719 Q826.7344,654.4063 827.625,655.2344 Q828.5156,656.0469 830.1094,656.0469 Q831.0469,656.0469 831.7031,655.7969 Q832.0938,655.6406 832.5156,655.2031 Q832.7813,654.9375 832.9219,654.8594 Q833.0781,654.7813 833.2813,654.7813 Q833.6094,654.7813 833.8594,655.0469 Q834.125,655.2969 834.125,655.6406 Q834.125,655.9844 833.7813,656.3906 Q833.2813,656.9688 832.4844,657.2969 Q831.4063,657.75 830.1094,657.75 Q828.5938,657.75 827.3906,657.125 Q826.4063,656.625 825.7188,655.5625 Q825.0313,654.4844 825.0313,653.2031 L825.0313,652.0469 Q825.0313,650.7188 825.6406,649.5781 Q826.2656,648.4219 827.3594,647.8125 Q828.4531,647.1875 829.6875,647.1875 Q830.4219,647.1875 831.0625,647.3594 Q831.7188,647.5156 832.2656,647.875 Z " fill="#000000"/><text fill="#000000" font-family="sans-serif" font-size="14" lengthAdjust="spacing" textLength="77.041" x="843.5" y="657.7969">Receptionist</text><line style="stroke:#181818;stroke-width:0.5;" x1="815.5" x2="922.541" y1="668" y2="668"/><line style="stroke:#181818;stroke-width:0.5;" x1="815.5" x2="922.541" y1="676" y2="676"/></g><!--class Appointment--><g id="elem_Appointment"><rect codeLine="16" fill="#F1F1F1" height="85.2422" id="Appointment" rx="2.5" ry="2.5" style="stroke:#181818;stroke-width:0.5;" width="110.6064" x="544.5" y="909"/><ellipse cx="559.5" cy="925" fill="#ADD1B2" rx="11" ry="11" style="stroke:#181818;stroke-width:1.0;"/><path d="M562.2656,920.875 Q562.4219,920.6563 562.6094,920.5469 Q562.7969,920.4375 563.0156,920.4375 Q563.3906,920.4375 563.625,920.7031 Q563.8594,920.9531 563.8594,921.5625 L563.8594,923.0156 Q563.8594,923.625 563.625,923.8906 Q563.3906,924.1563 563.0156,924.1563 Q562.6719,924.1563 562.4688,923.9531 Q562.2656,923.7656 562.1563,923.25 Q562.1094,922.8906 561.9219,922.7031 Q561.5938,922.3281 560.9844,922.1094 Q560.375,921.8906 559.75,921.8906 Q558.9844,921.8906 558.3438,922.2188 Q557.7188,922.5469 557.2188,923.2969 Q556.7344,924.0469 556.7344,925.0781 L556.7344,926.1719 Q556.7344,927.4063 557.625,928.2344 Q558.5156,929.0469 560.1094,929.0469 Q561.0469,929.0469 561.7031,928.7969 Q562.0938,928.6406 562.5156,928.2031 Q562.7813,927.9375 562.9219,927.8594 Q563.0781,927.7813 563.2813,927.7813 Q563.6094,927.7813 563.8594,928.0469 Q564.125,928.2969 564.125,928.6406 Q564.125,928.9844 563.7813,929.3906 Q563.2813,929.9688 562.4844,930.2969 Q561.4063,930.75 560.1094,930.75 Q558.5938,930.75 557.3906,930.125 Q556.4063,929.625 555.7188,928.5625 Q555.0313,927.4844 555.0313,926.2031 L555.0313,925.0469 Q555.0313,923.7188 555.6406,922.5781 Q556.2656,921.4219 557.3594,920.8125 Q558.4531,920.1875 559.6875,920.1875 Q560.4219,920.1875 561.0625,920.3594 Q561.7188,920.5156 562.2656,920.875 Z " fill="#000000"/><text fill="#000000" font-family="sans-serif" font-size="14" lengthAdjust="spacing" textLength="78.6064" x="573.5" y="930.7969">Appointment</text><line style="stroke:#181818;stroke-width:0.5;" x1="545.5" x2="654.1064" y1="941" y2="941"/><rect fill="none" height="6" style="stroke:#C82930;stroke-width:1.0;" width="6" x="552.5" y="952.8105"/><text fill="#000000" font-family="sans-serif" font-size="14" lengthAdjust="spacing" textLength="73.1445" x="564.5" y="960.1074">sns number</text><rect fill="none" height="6" style="stroke:#C82930;stroke-width:1.0;" width="6" x="552.5" y="971.4316"/><text fill="#000000" font-family="sans-serif" font-size="14" lengthAdjust="spacing" textLength="27.248" x="564.5" y="978.7285">date</text><line style="stroke:#181818;stroke-width:0.5;" x1="545.5" x2="654.1064" y1="986.2422" y2="986.2422"/></g><!--class Dgsadmin--><g id="elem_Dgsadmin"><rect codeLine="21" fill="#F1F1F1" height="103.8633" id="Dgsadmin" rx="2.5" ry="2.5" style="stroke:#181818;stroke-width:0.5;" width="95.0273" x="171.5" y="7"/><ellipse cx="186.5" cy="23" fill="#ADD1B2" rx="11" ry="11" style="stroke:#181818;stroke-width:1.0;"/><path d="M189.2656,18.875 Q189.4219,18.6563 189.6094,18.5469 Q189.7969,18.4375 190.0156,18.4375 Q190.3906,18.4375 190.625,18.7031 Q190.8594,18.9531 190.8594,19.5625 L190.8594,21.0156 Q190.8594,21.625 190.625,21.8906 Q190.3906,22.1563 190.0156,22.1563 Q189.6719,22.1563 189.4688,21.9531 Q189.2656,21.7656 189.1563,21.25 Q189.1094,20.8906 188.9219,20.7031 Q188.5938,20.3281 187.9844,20.1094 Q187.375,19.8906 186.75,19.8906 Q185.9844,19.8906 185.3438,20.2188 Q184.7188,20.5469 184.2188,21.2969 Q183.7344,22.0469 183.7344,23.0781 L183.7344,24.1719 Q183.7344,25.4063 184.625,26.2344 Q185.5156,27.0469 187.1094,27.0469 Q188.0469,27.0469 188.7031,26.7969 Q189.0938,26.6406 189.5156,26.2031 Q189.7813,25.9375 189.9219,25.8594 Q190.0781,25.7813 190.2813,25.7813 Q190.6094,25.7813 190.8594,26.0469 Q191.125,26.2969 191.125,26.6406 Q191.125,26.9844 190.7813,27.3906 Q190.2813,27.9688 189.4844,28.2969 Q188.4063,28.75 187.1094,28.75 Q185.5938,28.75 184.3906,28.125 Q183.4063,27.625 182.7188,26.5625 Q182.0313,25.4844 182.0313,24.2031 L182.0313,23.0469 Q182.0313,21.7188 182.6406,20.5781 Q183.2656,19.4219 184.3594,18.8125 Q185.4531,18.1875 186.6875,18.1875 Q187.4219,18.1875 188.0625,18.3594 Q188.7188,18.5156 189.2656,18.875 Z " fill="#000000"/><text fill="#000000" font-family="sans-serif" font-size="14" lengthAdjust="spacing" textLength="63.0273" x="200.5" y="28.7969">Dgsadmin</text><line style="stroke:#181818;stroke-width:0.5;" x1="172.5" x2="265.5273" y1="39" y2="39"/><rect fill="none" height="6" style="stroke:#C82930;stroke-width:1.0;" width="6" x="179.5" y="50.8105"/><text fill="#000000" font-family="sans-serif" font-size="14" lengthAdjust="spacing" textLength="10.8965" x="191.5" y="58.1074">id</text><rect fill="none" height="6" style="stroke:#C82930;stroke-width:1.0;" width="6" x="179.5" y="69.4316"/><text fill="#000000" font-family="sans-serif" font-size="14" lengthAdjust="spacing" textLength="35.0205" x="191.5" y="76.7285">name</text><rect fill="none" height="6" style="stroke:#C82930;stroke-width:1.0;" width="6" x="179.5" y="88.0527"/><text fill="#000000" font-family="sans-serif" font-size="14" lengthAdjust="spacing" textLength="33.4551" x="191.5" y="95.3496">email</text><line style="stroke:#181818;stroke-width:0.5;" x1="172.5" x2="265.5273" y1="102.8633" y2="102.8633"/></g><!--class Center--><g id="elem_Center"><rect codeLine="27" fill="#F1F1F1" height="196.9688" id="Center" rx="2.5" ry="2.5" style="stroke:#181818;stroke-width:0.5;" width="233.416" x="35.5" y="561.5"/><ellipse cx="126.9478" cy="577.5" fill="#ADD1B2" rx="11" ry="11" style="stroke:#181818;stroke-width:1.0;"/><path d="M129.7134,573.375 Q129.8696,573.1563 130.0571,573.0469 Q130.2446,572.9375 130.4634,572.9375 Q130.8384,572.9375 131.0728,573.2031 Q131.3071,573.4531 131.3071,574.0625 L131.3071,575.5156 Q131.3071,576.125 131.0728,576.3906 Q130.8384,576.6563 130.4634,576.6563 Q130.1196,576.6563 129.9165,576.4531 Q129.7134,576.2656 129.604,575.75 Q129.5571,575.3906 129.3696,575.2031 Q129.0415,574.8281 128.4321,574.6094 Q127.8228,574.3906 127.1978,574.3906 Q126.4321,574.3906 125.7915,574.7188 Q125.1665,575.0469 124.6665,575.7969 Q124.1821,576.5469 124.1821,577.5781 L124.1821,578.6719 Q124.1821,579.9063 125.0728,580.7344 Q125.9634,581.5469 127.5571,581.5469 Q128.4946,581.5469 129.1509,581.2969 Q129.5415,581.1406 129.9634,580.7031 Q130.229,580.4375 130.3696,580.3594 Q130.5259,580.2813 130.729,580.2813 Q131.0571,580.2813 131.3071,580.5469 Q131.5728,580.7969 131.5728,581.1406 Q131.5728,581.4844 131.229,581.8906 Q130.729,582.4688 129.9321,582.7969 Q128.854,583.25 127.5571,583.25 Q126.0415,583.25 124.8384,582.625 Q123.854,582.125 123.1665,581.0625 Q122.479,579.9844 122.479,578.7031 L122.479,577.5469 Q122.479,576.2188 123.0884,575.0781 Q123.7134,573.9219 124.8071,573.3125 Q125.9009,572.6875 127.1353,572.6875 Q127.8696,572.6875 128.5103,572.8594 Q129.1665,573.0156 129.7134,573.375 Z " fill="#000000"/><text fill="#000000" font-family="sans-serif" font-size="14" lengthAdjust="spacing" textLength="42.0205" x="147.4478" y="583.2969">Center</text><line style="stroke:#181818;stroke-width:0.5;" x1="36.5" x2="267.916" y1="593.5" y2="593.5"/><rect fill="none" height="6" style="stroke:#C82930;stroke-width:1.0;" width="6" x="43.5" y="605.3105"/><text fill="#000000" font-family="sans-serif" font-size="14" lengthAdjust="spacing" textLength="35.0205" x="55.5" y="612.6074">name</text><rect fill="none" height="6" style="stroke:#C82930;stroke-width:1.0;" width="6" x="43.5" y="623.9316"/><text fill="#000000" font-family="sans-serif" font-size="14" lengthAdjust="spacing" textLength="91.0547" x="55.5" y="631.2285">postal address</text><rect fill="none" height="6" style="stroke:#C82930;stroke-width:1.0;" width="6" x="43.5" y="642.5527"/><text fill="#000000" font-family="sans-serif" font-size="14" lengthAdjust="spacing" textLength="90.2891" x="55.5" y="649.8496">phone number</text><rect fill="none" height="6" style="stroke:#C82930;stroke-width:1.0;" width="6" x="43.5" y="661.1738"/><text fill="#000000" font-family="sans-serif" font-size="14" lengthAdjust="spacing" textLength="33.4551" x="55.5" y="668.4707">email</text><rect fill="none" height="6" style="stroke:#C82930;stroke-width:1.0;" width="6" x="43.5" y="679.7949"/><text fill="#000000" font-family="sans-serif" font-size="14" lengthAdjust="spacing" textLength="101.165" x="55.5" y="687.0918">website address</text><rect fill="none" height="6" style="stroke:#C82930;stroke-width:1.0;" width="6" x="43.5" y="698.416"/><text fill="#000000" font-family="sans-serif" font-size="14" lengthAdjust="spacing" textLength="63.0547" x="55.5" y="705.7129">open hour</text><rect fill="none" height="6" style="stroke:#C82930;stroke-width:1.0;" width="6" x="43.5" y="717.0371"/><text fill="#000000" font-family="sans-serif" font-size="14" lengthAdjust="spacing" textLength="64.5928" x="55.5" y="724.334">close hour</text><rect fill="none" height="6" style="stroke:#C82930;stroke-width:1.0;" width="6" x="43.5" y="735.6582"/><text fill="#000000" font-family="sans-serif" font-size="14" lengthAdjust="spacing" textLength="207.416" x="55.5" y="742.9551">maximum n&#186; of vaccines per hour</text><line style="stroke:#181818;stroke-width:0.5;" x1="36.5" x2="267.916" y1="750.4688" y2="750.4688"/></g><!--class CommunityMass--><g id="elem_CommunityMass"><rect codeLine="38" fill="#F1F1F1" height="48" id="CommunityMass" rx="2.5" ry="2.5" style="stroke:#181818;stroke-width:0.5;" width="136.2412" x="7" y="927.5"/><ellipse cx="22" cy="943.5" fill="#ADD1B2" rx="11" ry="11" style="stroke:#181818;stroke-width:1.0;"/><path d="M24.7656,939.375 Q24.9219,939.1563 25.1094,939.0469 Q25.2969,938.9375 25.5156,938.9375 Q25.8906,938.9375 26.125,939.2031 Q26.3594,939.4531 26.3594,940.0625 L26.3594,941.5156 Q26.3594,942.125 26.125,942.3906 Q25.8906,942.6563 25.5156,942.6563 Q25.1719,942.6563 24.9688,942.4531 Q24.7656,942.2656 24.6563,941.75 Q24.6094,941.3906 24.4219,941.2031 Q24.0938,940.8281 23.4844,940.6094 Q22.875,940.3906 22.25,940.3906 Q21.4844,940.3906 20.8438,940.7188 Q20.2188,941.0469 19.7188,941.7969 Q19.2344,942.5469 19.2344,943.5781 L19.2344,944.6719 Q19.2344,945.9063 20.125,946.7344 Q21.0156,947.5469 22.6094,947.5469 Q23.5469,947.5469 24.2031,947.2969 Q24.5938,947.1406 25.0156,946.7031 Q25.2813,946.4375 25.4219,946.3594 Q25.5781,946.2813 25.7813,946.2813 Q26.1094,946.2813 26.3594,946.5469 Q26.625,946.7969 26.625,947.1406 Q26.625,947.4844 26.2813,947.8906 Q25.7813,948.4688 24.9844,948.7969 Q23.9063,949.25 22.6094,949.25 Q21.0938,949.25 19.8906,948.625 Q18.9063,948.125 18.2188,947.0625 Q17.5313,945.9844 17.5313,944.7031 L17.5313,943.5469 Q17.5313,942.2188 18.1406,941.0781 Q18.7656,939.9219 19.8594,939.3125 Q20.9531,938.6875 22.1875,938.6875 Q22.9219,938.6875 23.5625,938.8594 Q24.2188,939.0156 24.7656,939.375 Z " fill="#000000"/><text fill="#000000" font-family="sans-serif" font-size="14" lengthAdjust="spacing" textLength="104.2412" x="36" y="949.2969">CommunityMass</text><line style="stroke:#181818;stroke-width:0.5;" x1="8" x2="142.2412" y1="959.5" y2="959.5"/><line style="stroke:#181818;stroke-width:0.5;" x1="8" x2="142.2412" y1="967.5" y2="967.5"/></g><!--class VacineType--><g id="elem_VacineType"><rect codeLine="42" fill="#F1F1F1" height="159.7266" id="VacineType" rx="2.5" ry="2.5" style="stroke:#181818;stroke-width:0.5;" width="136.4756" x="304" y="580"/><ellipse cx="332.7452" cy="596" fill="#ADD1B2" rx="11" ry="11" style="stroke:#181818;stroke-width:1.0;"/><path d="M335.5108,591.875 Q335.6671,591.6563 335.8546,591.5469 Q336.0421,591.4375 336.2608,591.4375 Q336.6358,591.4375 336.8702,591.7031 Q337.1046,591.9531 337.1046,592.5625 L337.1046,594.0156 Q337.1046,594.625 336.8702,594.8906 Q336.6358,595.1563 336.2608,595.1563 Q335.9171,595.1563 335.714,594.9531 Q335.5108,594.7656 335.4015,594.25 Q335.3546,593.8906 335.1671,593.7031 Q334.839,593.3281 334.2296,593.1094 Q333.6202,592.8906 332.9952,592.8906 Q332.2296,592.8906 331.589,593.2188 Q330.964,593.5469 330.464,594.2969 Q329.9796,595.0469 329.9796,596.0781 L329.9796,597.1719 Q329.9796,598.4063 330.8702,599.2344 Q331.7608,600.0469 333.3546,600.0469 Q334.2921,600.0469 334.9483,599.7969 Q335.339,599.6406 335.7608,599.2031 Q336.0265,598.9375 336.1671,598.8594 Q336.3233,598.7813 336.5265,598.7813 Q336.8546,598.7813 337.1046,599.0469 Q337.3702,599.2969 337.3702,599.6406 Q337.3702,599.9844 337.0265,600.3906 Q336.5265,600.9688 335.7296,601.2969 Q334.6515,601.75 333.3546,601.75 Q331.839,601.75 330.6358,601.125 Q329.6515,600.625 328.964,599.5625 Q328.2765,598.4844 328.2765,597.2031 L328.2765,596.0469 Q328.2765,594.7188 328.8858,593.5781 Q329.5108,592.4219 330.6046,591.8125 Q331.6983,591.1875 332.9327,591.1875 Q333.6671,591.1875 334.3077,591.3594 Q334.964,591.5156 335.5108,591.875 Z " fill="#000000"/><text fill="#000000" font-family="sans-serif" font-size="14" lengthAdjust="spacing" textLength="73.9307" x="349.7997" y="601.7969">VacineType</text><line style="stroke:#181818;stroke-width:0.5;" x1="305" x2="439.4756" y1="612" y2="612"/><rect fill="none" height="6" style="stroke:#C82930;stroke-width:1.0;" width="6" x="312" y="623.8105"/><text fill="#000000" font-family="sans-serif" font-size="14" lengthAdjust="spacing" textLength="30.3584" x="324" y="631.1074">code</text><rect fill="none" height="6" style="stroke:#C82930;stroke-width:1.0;" width="6" x="312" y="642.4316"/><text fill="#000000" font-family="sans-serif" font-size="14" lengthAdjust="spacing" textLength="48.2549" x="324" y="649.7285">disease</text><rect fill="none" height="6" style="stroke:#C82930;stroke-width:1.0;" width="6" x="312" y="661.0527"/><text fill="#000000" font-family="sans-serif" font-size="14" lengthAdjust="spacing" textLength="110.4756" x="324" y="668.3496">commercial name</text><rect fill="none" height="6" style="stroke:#C82930;stroke-width:1.0;" width="6" x="312" y="679.6738"/><text fill="#000000" font-family="sans-serif" font-size="14" lengthAdjust="spacing" textLength="35.8066" x="324" y="686.9707">brand</text><rect fill="none" height="6" style="stroke:#C82930;stroke-width:1.0;" width="6" x="312" y="698.2949"/><text fill="#000000" font-family="sans-serif" font-size="14" lengthAdjust="spacing" textLength="26.4619" x="324" y="705.5918">type</text><rect fill="none" height="6" style="stroke:#C82930;stroke-width:1.0;" width="6" x="312" y="716.916"/><text fill="#000000" font-family="sans-serif" font-size="14" lengthAdjust="spacing" textLength="94.1787" x="324" y="724.2129">techonoly used</text><line style="stroke:#181818;stroke-width:0.5;" x1="305" x2="439.4756" y1="731.7266" y2="731.7266"/></g><!--class SNSUser--><g id="elem_SNSUser"><rect codeLine="51" fill="#F1F1F1" height="215.5898" id="SNSUser" rx="2.5" ry="2.5" style="stroke:#181818;stroke-width:0.5;" width="148.165" x="526" y="552"/><ellipse cx="567.0191" cy="568" fill="#ADD1B2" rx="11" ry="11" style="stroke:#181818;stroke-width:1.0;"/><path d="M569.7848,563.875 Q569.941,563.6563 570.1285,563.5469 Q570.316,563.4375 570.5348,563.4375 Q570.9098,563.4375 571.1441,563.7031 Q571.3785,563.9531 571.3785,564.5625 L571.3785,566.0156 Q571.3785,566.625 571.1441,566.8906 Q570.9098,567.1563 570.5348,567.1563 Q570.191,567.1563 569.9879,566.9531 Q569.7848,566.7656 569.6754,566.25 Q569.6285,565.8906 569.441,565.7031 Q569.1129,565.3281 568.5035,565.1094 Q567.8941,564.8906 567.2691,564.8906 Q566.5035,564.8906 565.8629,565.2188 Q565.2379,565.5469 564.7379,566.2969 Q564.2535,567.0469 564.2535,568.0781 L564.2535,569.1719 Q564.2535,570.4063 565.1441,571.2344 Q566.0348,572.0469 567.6285,572.0469 Q568.566,572.0469 569.2223,571.7969 Q569.6129,571.6406 570.0348,571.2031 Q570.3004,570.9375 570.441,570.8594 Q570.5973,570.7813 570.8004,570.7813 Q571.1285,570.7813 571.3785,571.0469 Q571.6441,571.2969 571.6441,571.6406 Q571.6441,571.9844 571.3004,572.3906 Q570.8004,572.9688 570.0035,573.2969 Q568.9254,573.75 567.6285,573.75 Q566.1129,573.75 564.9098,573.125 Q563.9254,572.625 563.2379,571.5625 Q562.5504,570.4844 562.5504,569.2031 L562.5504,568.0469 Q562.5504,566.7188 563.1598,565.5781 Q563.7848,564.4219 564.8785,563.8125 Q565.9723,563.1875 567.2066,563.1875 Q567.941,563.1875 568.5816,563.3594 Q569.2379,563.5156 569.7848,563.875 Z " fill="#000000"/><text fill="#000000" font-family="sans-serif" font-size="14" lengthAdjust="spacing" textLength="58.3447" x="586.8012" y="573.7969">SNSUser</text><line style="stroke:#181818;stroke-width:0.5;" x1="527" x2="673.165" y1="584" y2="584"/><rect fill="none" height="6" style="stroke:#C82930;stroke-width:1.0;" width="6" x="534" y="595.8105"/><text fill="#000000" font-family="sans-serif" font-size="14" lengthAdjust="spacing" textLength="35.0205" x="546" y="603.1074">name</text><rect fill="none" height="6" style="stroke:#C82930;stroke-width:1.0;" width="6" x="534" y="614.4316"/><text fill="#000000" font-family="sans-serif" font-size="14" lengthAdjust="spacing" textLength="73.9375" x="546" y="621.7285">date of birth</text><rect fill="none" height="6" style="stroke:#C82930;stroke-width:1.0;" width="6" x="534" y="633.0527"/><text fill="#000000" font-family="sans-serif" font-size="14" lengthAdjust="spacing" textLength="21.7861" x="546" y="640.3496">sex</text><rect fill="none" height="6" style="stroke:#C82930;stroke-width:1.0;" width="6" x="534" y="651.6738"/><text fill="#000000" font-family="sans-serif" font-size="14" lengthAdjust="spacing" textLength="91.0547" x="546" y="658.9707">postal address</text><rect fill="none" height="6" style="stroke:#C82930;stroke-width:1.0;" width="6" x="534" y="670.2949"/><text fill="#000000" font-family="sans-serif" font-size="14" lengthAdjust="spacing" textLength="90.2891" x="546" y="677.5918">phone number</text><rect fill="none" height="6" style="stroke:#C82930;stroke-width:1.0;" width="6" x="534" y="688.916"/><text fill="#000000" font-family="sans-serif" font-size="14" lengthAdjust="spacing" textLength="33.4551" x="546" y="696.2129">email</text><rect fill="none" height="6" style="stroke:#C82930;stroke-width:1.0;" width="6" x="534" y="707.5371"/><text fill="#000000" font-family="sans-serif" font-size="14" lengthAdjust="spacing" textLength="14.7861" x="546" y="714.834">nif</text><rect fill="none" height="6" style="stroke:#C82930;stroke-width:1.0;" width="6" x="534" y="726.1582"/><text fill="#000000" font-family="sans-serif" font-size="14" lengthAdjust="spacing" textLength="73.1445" x="546" y="733.4551">sns number</text><rect fill="none" height="6" style="stroke:#C82930;stroke-width:1.0;" width="6" x="534" y="744.7793"/><text fill="#000000" font-family="sans-serif" font-size="14" lengthAdjust="spacing" textLength="122.165" x="546" y="752.0762">citizen card number</text><line style="stroke:#181818;stroke-width:0.5;" x1="527" x2="673.165" y1="759.5898" y2="759.5898"/></g><!--class HealthCare--><g id="elem_HealthCare"><rect fill="#F1F1F1" height="48" id="HealthCare" rx="2.5" ry="2.5" style="stroke:#181818;stroke-width:0.5;" width="102.8135" x="178.5" y="927.5"/><ellipse cx="193.5" cy="943.5" fill="#ADD1B2" rx="11" ry="11" style="stroke:#181818;stroke-width:1.0;"/><path d="M196.2656,939.375 Q196.4219,939.1563 196.6094,939.0469 Q196.7969,938.9375 197.0156,938.9375 Q197.3906,938.9375 197.625,939.2031 Q197.8594,939.4531 197.8594,940.0625 L197.8594,941.5156 Q197.8594,942.125 197.625,942.3906 Q197.3906,942.6563 197.0156,942.6563 Q196.6719,942.6563 196.4688,942.4531 Q196.2656,942.2656 196.1563,941.75 Q196.1094,941.3906 195.9219,941.2031 Q195.5938,940.8281 194.9844,940.6094 Q194.375,940.3906 193.75,940.3906 Q192.9844,940.3906 192.3438,940.7188 Q191.7188,941.0469 191.2188,941.7969 Q190.7344,942.5469 190.7344,943.5781 L190.7344,944.6719 Q190.7344,945.9063 191.625,946.7344 Q192.5156,947.5469 194.1094,947.5469 Q195.0469,947.5469 195.7031,947.2969 Q196.0938,947.1406 196.5156,946.7031 Q196.7813,946.4375 196.9219,946.3594 Q197.0781,946.2813 197.2813,946.2813 Q197.6094,946.2813 197.8594,946.5469 Q198.125,946.7969 198.125,947.1406 Q198.125,947.4844 197.7813,947.8906 Q197.2813,948.4688 196.4844,948.7969 Q195.4063,949.25 194.1094,949.25 Q192.5938,949.25 191.3906,948.625 Q190.4063,948.125 189.7188,947.0625 Q189.0313,945.9844 189.0313,944.7031 L189.0313,943.5469 Q189.0313,942.2188 189.6406,941.0781 Q190.2656,939.9219 191.3594,939.3125 Q192.4531,938.6875 193.6875,938.6875 Q194.4219,938.6875 195.0625,938.8594 Q195.7188,939.0156 196.2656,939.375 Z " fill="#000000"/><text fill="#000000" font-family="sans-serif" font-size="14" lengthAdjust="spacing" textLength="70.8135" x="207.5" y="949.2969">HealthCare</text><line style="stroke:#181818;stroke-width:0.5;" x1="179.5" x2="280.3135" y1="959.5" y2="959.5"/><line style="stroke:#181818;stroke-width:0.5;" x1="179.5" x2="280.3135" y1="967.5" y2="967.5"/></g><!--link Center to SNSUser--><g id="link_Center_SNSUser"><path codeLine="62" d="M268.75,561.41 C274.77,557.99 280.87,554.83 287,552 C340.84,527.2 358.99,532.58 418,527 C456.05,523.4 469.97,509.59 504,527 C516.3,533.29 527.38,541.97 537.27,551.91 " fill="none" id="Center-SNSUser" style="stroke:#181818;stroke-width:1.0;"/><polygon fill="#000000" points="418.0031,512.8223,427.1465,515.4396,426.9386,509.5654,418.0031,512.8223" style="stroke:#000000;stroke-width:1.0;"/><text fill="#000000" font-family="sans-serif" font-size="13" lengthAdjust="spacing" textLength="71.5381" x="432" y="518.0283">registered in</text><text fill="#000000" font-family="sans-serif" font-size="13" lengthAdjust="spacing" textLength="7.23" x="270.4136" y="550.2516">1</text><text fill="#000000" font-family="sans-serif" font-size="13" lengthAdjust="spacing" textLength="23.1245" x="509.0493" y="540.7652">0...*</text></g><!--link Center to HealthCare--><g id="link_Center_HealthCare"><path codeLine="63" d="M178.3,758.61 C194.49,818.69 213.95,890.93 223.73,927.24 " fill="none" id="Center-HealthCare" style="stroke:#181818;stroke-width:1.0;"/><polygon fill="#000000" points="208.3007,843.4734,208.7855,833.9752,203.11,835.5042,208.3007,843.4734" style="stroke:#000000;stroke-width:1.0;"/><text fill="#000000" font-family="sans-serif" font-size="13" lengthAdjust="spacing" textLength="49.1372" x="216" y="844.0283">provides</text><text fill="#000000" font-family="sans-serif" font-size="13" lengthAdjust="spacing" textLength="7.23" x="172.9675" y="780.516">1</text><text fill="#000000" font-family="sans-serif" font-size="13" lengthAdjust="spacing" textLength="19.5127" x="200.9713" y="916.3185">0..*</text></g><!--link Center to CommunityMass--><g id="link_Center_CommunityMass"><path codeLine="64" d="M126.04,758.61 C110.06,818.69 90.84,890.93 81.19,927.24 " fill="none" id="Center-CommunityMass" style="stroke:#181818;stroke-width:1.0;"/><polygon fill="#000000" points="111.7148,843.4775,116.8799,835.4917,111.1995,833.9809,111.7148,843.4775" style="stroke:#000000;stroke-width:1.0;"/><text fill="#000000" font-family="sans-serif" font-size="13" lengthAdjust="spacing" textLength="49.1372" x="122" y="844.0283">provides</text><text fill="#000000" font-family="sans-serif" font-size="13" lengthAdjust="spacing" textLength="7.23" x="116.8697" y="780.516">1</text><text fill="#000000" font-family="sans-serif" font-size="13" lengthAdjust="spacing" textLength="19.5127" x="61.4163" y="916.3185">0..*</text></g><!--link worker to Nurse--><g id="link_worker_Nurse"><path codeLine="65" d="M617.15,393.02 C653.4,469.02 709.46,586.57 733,635.93 " fill="none" id="worker-Nurse" style="stroke:#181818;stroke-width:1.0;"/><polygon fill="#000000" points="661.1524,468.1585,659.9114,458.7293,654.606,461.2595,661.1524,468.1585" style="stroke:#000000;stroke-width:1.0;"/><text fill="#000000" font-family="sans-serif" font-size="13" lengthAdjust="spacing" textLength="41.9199" x="668" y="469.0283">Can be</text><text fill="#000000" font-family="sans-serif" font-size="13" lengthAdjust="spacing" textLength="7.23" x="613.2277" y="415.2068">1</text><text fill="#000000" font-family="sans-serif" font-size="13" lengthAdjust="spacing" textLength="19.5127" x="708.7684" y="624.6495">0..*</text></g><!--link worker to Receptionist--><g id="link_worker_Receptionist"><path codeLine="66" d="M643.32,378.16 C667.2,400.96 694.58,428.11 718,454 C755.35,495.28 762.96,507.2 796,552 C816.82,580.23 839.38,613.79 853.82,635.7 " fill="none" id="worker-Receptionist" style="stroke:#181818;stroke-width:1.0;"/><polygon fill="#000000" points="742.1643,467.5169,738.7156,458.6536,734.1645,462.3734,742.1643,467.5169" style="stroke:#000000;stroke-width:1.0;"/><text fill="#000000" font-family="sans-serif" font-size="13" lengthAdjust="spacing" textLength="41.9199" x="748" y="469.0283">Can be</text><text fill="#000000" font-family="sans-serif" font-size="13" lengthAdjust="spacing" textLength="7.23" x="650.9999" y="380.9473">1</text><text fill="#000000" font-family="sans-serif" font-size="13" lengthAdjust="spacing" textLength="19.5127" x="828.8617" y="624.7688">0..*</text></g><!--link worker to Center--><g id="link_worker_Center"><path codeLine="67" d="M524.92,368.56 C464.84,414.46 369.17,487.83 287,552 C280.99,556.69 274.84,561.51 268.63,566.39 " fill="none" id="worker-Center" style="stroke:#181818;stroke-width:1.0;"/><polygon fill="#000000" points="421.958,460.5903,413.0021,463.7907,416.5937,468.4437,421.958,460.5903" style="stroke:#000000;stroke-width:1.0;"/><text fill="#000000" font-family="sans-serif" font-size="13" lengthAdjust="spacing" textLength="30.3481" x="427" y="469.0283">Have</text><text fill="#000000" font-family="sans-serif" font-size="13" lengthAdjust="spacing" textLength="7.23" x="509.9269" y="370.4126">1</text><text fill="#000000" font-family="sans-serif" font-size="13" lengthAdjust="spacing" textLength="19.5127" x="276.4406" y="574.0035">0..*</text></g><!--link SNSUser to Appointment--><g id="link_SNSUser_Appointment"><path codeLine="68" d="M600,768.39 C600,817.31 600,872.34 600,908.97 " fill="none" id="SNSUser-Appointment" style="stroke:#181818;stroke-width:1.0;"/><polygon fill="#000000" points="605,843.6455,607.9389,834.6004,602.0611,834.6004,605,843.6455" style="stroke:#000000;stroke-width:1.0;"/><text fill="#000000" font-family="sans-serif" font-size="13" lengthAdjust="spacing" textLength="52.0381" x="614" y="844.0283">schedule</text><text fill="#000000" font-family="sans-serif" font-size="13" lengthAdjust="spacing" textLength="7.23" x="592.7887" y="789.5627">1</text><text fill="#000000" font-family="sans-serif" font-size="13" lengthAdjust="spacing" textLength="19.5127" x="579.5582" y="897.8693">0..*</text></g><!--link VacineType to SNSUser--><g id="link_VacineType_SNSUser"><path codeLine="69" d="M440.1,660 C467.13,660 498.29,660 525.89,660 " fill="none" id="VacineType-SNSUser" style="stroke:#181818;stroke-width:1.0;"/><polygon fill="#000000" points="457.5,647.6455,466.5451,650.5844,466.5451,644.7066,457.5,647.6455" style="stroke:#000000;stroke-width:1.0;"/><text fill="#000000" font-family="sans-serif" font-size="13" lengthAdjust="spacing" textLength="36.1309" x="471.5" y="653.0283">Select</text><text fill="#000000" font-family="sans-serif" font-size="13" lengthAdjust="spacing" textLength="19.5127" x="448.5895" y="674.9889">0..*</text><text fill="#000000" font-family="sans-serif" font-size="13" lengthAdjust="spacing" textLength="7.23" x="510.8898" y="656.1879">1</text></g><!--link Dgsadmin to Center--><g id="link_Dgsadmin_Center"><path codeLine="70" d="M191.51,111.02 C182.62,131.94 175,156.78 175,180.5 C175,180.5 175,180.5 175,464.5 C175,496.12 171.96,530.44 168.1,561.32 " fill="none" id="Dgsadmin-Center" style="stroke:#181818;stroke-width:1.0;"/><polygon fill="#000000" points="179.7404,327.6388,183.145,318.7585,177.275,318.4533,179.7404,327.6388" style="stroke:#000000;stroke-width:1.0;"/><text fill="#000000" font-family="sans-serif" font-size="13" lengthAdjust="spacing" textLength="57.0972" x="189" y="328.0283">Managing</text><text fill="#000000" font-family="sans-serif" font-size="13" lengthAdjust="spacing" textLength="7.23" x="180.5524" y="132.8298">1</text><text fill="#000000" font-family="sans-serif" font-size="13" lengthAdjust="spacing" textLength="19.5127" x="149.609" y="550.1547">0..*</text></g><!--link Dgsadmin to worker--><g id="link_Dgsadmin_worker"><path codeLine="71" d="M266.72,94.19 C333,141.67 452.87,227.55 524.78,279.07 " fill="none" id="Dgsadmin-worker" style="stroke:#181818;stroke-width:1.0;"/><polygon fill="#000000" points="410.0646,184.5574,404.4233,176.9006,401.0001,181.6788,410.0646,184.5574" style="stroke:#000000;stroke-width:1.0;"/><text fill="#000000" font-family="sans-serif" font-size="13" lengthAdjust="spacing" textLength="57.0972" x="415" y="187.0283">Managing</text><text fill="#000000" font-family="sans-serif" font-size="13" lengthAdjust="spacing" textLength="7.23" x="274.5786" y="95.338">1</text><text fill="#000000" font-family="sans-serif" font-size="13" lengthAdjust="spacing" textLength="19.5127" x="497.4457" y="269.7807">0..*</text></g><!--SRC=[ZPBFQXin4CRlUeh1nu9CSZKbKDn2SeWfTTBxh3Js3br9YwHrufYyM8zziix-ote3JdjPTgJVD_hqQKo5AS5JYByedfI-iqflq97ItqFAM07QI2b9MGPFu1jNK5JwcqEkrAjIffDlcfZeDDK_o52TENXE-MpvIrq7zjcHbrMTV7hhPp7Jn7tT9xIElK0iVdpdXxeZ1UgPjJIX2ATnknxj3dxhcTzUh9-eI9nfea9D7ihG26Aga6ZuT_ZChd7W__o6i8C36iEU4jHoOaUyMLq7vnhF-NWlrKbD6p-nbJmSQyb5cs35ekL4cAWjdQDeMFpsvek8NYwQXPOl6V4UgYCqYUpKSRlPFgRkaNfHcrdhhk2OIucJdlyp1S-xUVg6Cxz840QZ7HTVrN3UucgvN7vQWAvebxM6nVLY27y546alJqoHBB276pMyIilebhtgfBU4LIxN64aaTGm7jXBc9NeMwLpGZ-bxGJTzArYZXu8kKkSp-KzulE0j7WW-Zr6yfyxcUGN9b6IRgkqvmyVOUiaq5YlOKaKc2p_E-oKNz-Xnptx_0TfVOuQglm00]--></g></svg>