<svg xmlns="http://www.w3.org/2000/svg" xmlns:xlink="http://www.w3.org/1999/xlink" contentStyleType="text/css" data-diagram-type="DESCRIPTION" height="732.5px" preserveAspectRatio="none" style="width:312px;height:732px;background:#FFFFFF;" version="1.1" viewBox="0 0 312 732" width="312.5px" zoomAndPan="magnify"><defs/><g><!--cluster Vaccination Management System--><g class="cluster" data-entity="Vaccination Management System" data-source-line="22" data-uid="ent0004" id="cluster_Vaccination Management System"><rect fill="none" height="727.5" rx="1.25" ry="1.25" style="stroke:#181818;stroke-width:0.5;" width="181.5" x="55.5" y="2"/><text fill="#000000" font-family="sans-serif" font-size="7" font-weight="bold" lengthAdjust="spacing" textLength="110.8687" x="90.8157" y="10.5537">Vaccination Management System</text></g><!--entity sns--><g class="entity" data-entity="sns" data-source-line="19" data-uid="ent0002" id="entity_sns"><ellipse cx="22.3086" cy="88.75" fill="#F1F1F1" rx="8" ry="8" style="stroke:#A80036;stroke-width:0.25;"/><path d="M22.3086,98.75 C24.3086,98.75 25.8086,98.75 27.8086,96.75 C31.8086,96.75 35.8086,100.75 35.8086,104.75 L35.8086,106.75 C35.8086,108.75 33.8086,110.75 31.8086,110.75 L12.8086,110.75 C10.8086,110.75 8.8086,108.75 8.8086,106.75 L8.8086,104.75 C8.8086,100.75 12.8086,96.75 16.8086,96.75 C18.8086,98.75 20.3086,98.75 22.3086,98.75" fill="#F1F1F1" style="stroke:#A80036;stroke-width:0.25;"/><text fill="#000000" font-family="sans-serif" font-size="7" lengthAdjust="spacing" textLength="31.1172" x="6.75" y="118.5537">SNS User</text></g><!--entity rec--><g class="entity" data-entity="rec" data-source-line="20" data-uid="ent0003" id="entity_rec"><ellipse cx="22.2603" cy="261.25" fill="#F1F1F1" rx="8" ry="8" style="stroke:#A80036;stroke-width:0.25;"/><path d="M22.2603,271.25 C24.2603,271.25 25.7603,271.25 27.7603,269.25 C31.7603,269.25 35.7603,273.25 35.7603,277.25 L35.7603,279.25 C35.7603,281.25 33.7603,283.25 31.7603,283.25 L12.7603,283.25 C10.7603,283.25 8.7603,281.25 8.7603,279.25 L8.7603,277.25 C8.7603,273.25 12.7603,269.25 16.7603,269.25 C18.7603,271.25 20.2603,271.25 22.2603,271.25" fill="#F1F1F1" style="stroke:#A80036;stroke-width:0.25;"/><text fill="#000000" font-family="sans-serif" font-size="7" lengthAdjust="spacing" textLength="38.5205" x="3" y="291.0537">Receptionist</text></g><!--entity nurse--><g class="entity" data-entity="nurse" data-source-line="45" data-uid="ent0025" id="entity_nurse"><ellipse cx="280.25" cy="442.25" fill="#F1F1F1" rx="8" ry="8" style="stroke:#A80036;stroke-width:0.25;"/><path d="M280.25,452.25 C282.25,452.25 283.75,452.25 285.75,450.25 C289.75,450.25 293.75,454.25 293.75,458.25 L293.75,460.25 C293.75,462.25 291.75,464.25 289.75,464.25 L270.75,464.25 C268.75,464.25 266.75,462.25 266.75,460.25 L266.75,458.25 C266.75,454.25 270.75,450.25 274.75,450.25 C276.75,452.25 278.25,452.25 280.25,452.25" fill="#F1F1F1" style="stroke:#A80036;stroke-width:0.25;"/><text fill="#000000" font-family="sans-serif" font-size="7" lengthAdjust="spacing" textLength="18.6724" x="270.9138" y="472.0537">Nurse</text></g><!--entity admin--><g class="entity" data-entity="admin" data-source-line="46" data-uid="ent0026" id="entity_admin"><ellipse cx="280.1741" cy="631.25" fill="#F1F1F1" rx="8" ry="8" style="stroke:#A80036;stroke-width:0.25;"/><path d="M280.1741,641.25 C282.1741,641.25 283.6741,641.25 285.6741,639.25 C289.6741,639.25 293.6741,643.25 293.6741,647.25 L293.6741,649.25 C293.6741,651.25 291.6741,653.25 289.6741,653.25 L270.6741,653.25 C268.6741,653.25 266.6741,651.25 266.6741,649.25 L266.6741,647.25 C266.6741,643.25 270.6741,639.25 274.6741,639.25 C276.6741,641.25 278.1741,641.25 280.1741,641.25" fill="#F1F1F1" style="stroke:#A80036;stroke-width:0.25;"/><text fill="#000000" font-family="sans-serif" font-size="7" lengthAdjust="spacing" textLength="58.3481" x="251" y="661.0537">DGS Administrator</text></g><!--entity UC01--><g class="entity" data-entity="UC01" data-source-line="23" data-uid="ent0005" id="entity_UC01"><ellipse cx="146.211" cy="24.5836" fill="#FEFECE" rx="33.961" ry="8.0836" style="stroke:#A80036;stroke-width:0.25;"/><text fill="#000000" font-family="sans-serif" font-size="7" lengthAdjust="spacing" textLength="45.9067" x="123.2576" y="27.4888">UC01 Register</text></g><!--entity UC02--><g class="entity" data-entity="UC02" data-source-line="24" data-uid="ent0006" id="entity_UC02"><ellipse cx="146.144" cy="53.0288" fill="#FEFECE" rx="50.394" ry="11.2788" style="stroke:#A80036;stroke-width:0.25;"/><text fill="#000000" font-family="sans-serif" font-size="7" lengthAdjust="spacing" textLength="85.9961" x="103.1459" y="55.9341">UC02 Schedule vaccination</text></g><!--entity UC03--><g class="entity" data-entity="UC03" data-source-line="25" data-uid="ent0007" id="entity_UC03"><ellipse cx="146.3017" cy="84.4603" fill="#FEFECE" rx="50.0517" ry="11.2103" style="stroke:#A80036;stroke-width:0.25;"/><text fill="#000000" font-family="sans-serif" font-size="7" lengthAdjust="spacing" textLength="85.2168" x="103.6933" y="87.3656">UC03 View an appointment</text></g><!--entity UC04--><g class="entity" data-entity="UC04" data-source-line="26" data-uid="ent0008" id="entity_UC04"><ellipse cx="146.2297" cy="116.5459" fill="#FEFECE" rx="52.9797" ry="11.7959" style="stroke:#A80036;stroke-width:0.25;"/><text fill="#000000" font-family="sans-serif" font-size="7" lengthAdjust="spacing" textLength="91.834" x="100.3127" y="119.4512">UC04 Cancel an appointment</text></g><!--entity UC05--><g class="entity" data-entity="UC05" data-source-line="27" data-uid="ent0009" id="entity_UC05"><ellipse cx="146.1645" cy="150.8829" fill="#FEFECE" rx="60.9145" ry="13.3829" style="stroke:#A80036;stroke-width:0.25;"/><text fill="#000000" font-family="sans-serif" font-size="7" lengthAdjust="spacing" textLength="109.3306" x="91.4992" y="153.7882">UC05 Obtain vaccination certificate</text></g><!--entity UC06--><g class="entity" data-entity="UC06" data-source-line="28" data-uid="ent0010" id="entity_UC06"><ellipse cx="146.2866" cy="184.6073" fill="#FEFECE" rx="49.5366" ry="11.1073" style="stroke:#A80036;stroke-width:0.25;"/><text fill="#000000" font-family="sans-serif" font-size="7" lengthAdjust="spacing" textLength="84.041" x="104.2661" y="187.5126">UC06 Receive notifications</text></g><!--entity UC07--><g class="entity" data-entity="UC07" data-source-line="29" data-uid="ent0011" id="entity_UC07"><ellipse cx="146.2222" cy="219.9444" fill="#FEFECE" rx="69.9722" ry="15.1944" style="stroke:#A80036;stroke-width:0.25;"/><text fill="#000000" font-family="sans-serif" font-size="7" lengthAdjust="spacing" textLength="128.7891" x="81.8277" y="222.8497">UC07 Assist with appointment scheduling</text></g><!--entity UC08--><g class="entity" data-entity="UC08" data-source-line="30" data-uid="ent0012" id="entity_UC08"><ellipse cx="146.3519" cy="255.4704" fill="#FEFECE" rx="48.8519" ry="10.9704" style="stroke:#A80036;stroke-width:0.25;"/><text fill="#000000" font-family="sans-serif" font-size="7" lengthAdjust="spacing" textLength="82.4722" x="105.1158" y="258.3757">UC08 Register user arrival</text></g><!--entity UC09--><g class="entity" data-entity="UC09" data-source-line="31" data-uid="ent0013" id="entity_UC09"><ellipse cx="146.3053" cy="290.5111" fill="#FEFECE" rx="69.0553" ry="15.0111" style="stroke:#A80036;stroke-width:0.25;"/><text fill="#000000" font-family="sans-serif" font-size="7" lengthAdjust="spacing" textLength="126.8374" x="82.8866" y="293.4163">UC09 Verify appointment &amp; SNS number</text></g><!--entity UC10--><g class="entity" data-entity="UC10" data-source-line="32" data-uid="ent0014" id="entity_UC10"><ellipse cx="146.1721" cy="325.4844" fill="#FEFECE" rx="47.6721" ry="10.7344" style="stroke:#A80036;stroke-width:0.25;"/><text fill="#000000" font-family="sans-serif" font-size="7" lengthAdjust="spacing" textLength="79.7515" x="106.2964" y="328.3897">UC10 Mark user as ready</text></g><!--entity UC11--><g class="entity" data-entity="UC11" data-source-line="33" data-uid="ent0015" id="entity_UC11"><ellipse cx="146.2433" cy="361.3987" fill="#FEFECE" rx="74.7433" ry="16.1487" style="stroke:#A80036;stroke-width:0.25;"/><text fill="#000000" font-family="sans-serif" font-size="7" lengthAdjust="spacing" textLength="138.8926" x="76.797" y="364.3039">UC11 View list of users ready for vaccination</text></g><!--entity UC12--><g class="entity" data-entity="UC12" data-source-line="34" data-uid="ent0016" id="entity_UC12"><ellipse cx="146.2897" cy="400.9579" fill="#FEFECE" rx="63.7897" ry="13.9579" style="stroke:#A80036;stroke-width:0.25;"/><text fill="#000000" font-family="sans-serif" font-size="7" lengthAdjust="spacing" textLength="115.5547" x="88.5124" y="403.8632">UC12 Access user health information</text></g><!--entity UC13--><g class="entity" data-entity="UC13" data-source-line="35" data-uid="ent0017" id="entity_UC13"><ellipse cx="146.1698" cy="434.884" fill="#FEFECE" rx="47.1698" ry="10.634" style="stroke:#A80036;stroke-width:0.25;"/><text fill="#000000" font-family="sans-serif" font-size="7" lengthAdjust="spacing" textLength="78.5859" x="106.8768" y="437.7892">UC13 Administer vaccine</text></g><!--entity UC14--><g class="entity" data-entity="UC14" data-source-line="36" data-uid="ent0018" id="entity_UC14"><ellipse cx="146.1637" cy="472.3827" fill="#FEFECE" rx="82.1637" ry="17.6327" style="stroke:#A80036;stroke-width:0.25;"/><text fill="#000000" font-family="sans-serif" font-size="7" lengthAdjust="spacing" textLength="154.4648" x="68.9313" y="475.288">UC14 Record vaccination details (type, brand, lot)</text></g><!--entity UC15--><g class="entity" data-entity="UC15" data-source-line="37" data-uid="ent0019" id="entity_UC15"><ellipse cx="146.2225" cy="511.9945" fill="#FEFECE" rx="56.4725" ry="12.4945" style="stroke:#A80036;stroke-width:0.25;"/><text fill="#000000" font-family="sans-serif" font-size="7" lengthAdjust="spacing" textLength="99.603" x="96.421" y="514.8998">UC15 Record adverse reactions</text></g><!--entity UC16--><g class="entity" data-entity="UC16" data-source-line="38" data-uid="ent0020" id="entity_UC16"><ellipse cx="146.1286" cy="546.5257" fill="#FEFECE" rx="59.1286" ry="13.0257" style="stroke:#A80036;stroke-width:0.25;"/><text fill="#000000" font-family="sans-serif" font-size="7" lengthAdjust="spacing" textLength="105.4375" x="93.4099" y="549.431">UC16 Issue vaccination certificate</text></g><!--entity UC17--><g class="entity" data-entity="UC17" data-source-line="39" data-uid="ent0021" id="entity_UC17"><ellipse cx="146.1983" cy="581.9897" fill="#FEFECE" rx="60.1983" ry="13.2397" style="stroke:#A80036;stroke-width:0.25;"/><text fill="#000000" font-family="sans-serif" font-size="7" lengthAdjust="spacing" textLength="107.772" x="92.3123" y="584.8949">UC17 Register vaccination centers</text></g><!--entity UC18--><g class="entity" data-entity="UC18" data-source-line="40" data-uid="ent0022" id="entity_UC18"><ellipse cx="146.3494" cy="622.0199" fill="#FEFECE" rx="81.5994" ry="17.5199" style="stroke:#A80036;stroke-width:0.25;"/><text fill="#000000" font-family="sans-serif" font-size="7" lengthAdjust="spacing" textLength="153.2856" x="69.7066" y="624.9252">UC18 Register personnel (Nurses, Receptionists)</text></g><!--entity UC19--><g class="entity" data-entity="UC19" data-source-line="41" data-uid="ent0023" id="entity_UC19"><ellipse cx="146.2579" cy="663.9516" fill="#FEFECE" rx="71.2579" ry="15.4516" style="stroke:#A80036;stroke-width:0.25;"/><text fill="#000000" font-family="sans-serif" font-size="7" lengthAdjust="spacing" textLength="131.52" x="80.4979" y="666.8569">UC19 Configure vaccine types and brands</text></g><!--entity UC20--><g class="entity" data-entity="UC20" data-source-line="42" data-uid="ent0024" id="entity_UC20"><ellipse cx="146.148" cy="707.0296" fill="#FEFECE" rx="86.648" ry="18.5296" style="stroke:#A80036;stroke-width:0.25;"/><text fill="#000000" font-family="sans-serif" font-size="7" lengthAdjust="spacing" textLength="163.8096" x="64.2432" y="709.9349">UC20 Manage system data (update, deactivate, etc.)</text></g><g class="link" data-entity-1="sns" data-entity-2="UC01" data-uid="lnk27" id="link_sns_UC01"><polygon fill="#181818" points="112.1511,21.9863,107.6201,20.0575,109.6514,22.0257,107.6832,24.057,112.1511,21.9863" style="stroke:#181818;stroke-width:0.5;"/><path d="M27.7489,80.4483 C32.4417,65.9932 40.9731,47.2863 55.5,37 C71.7658,25.4825 90.8833,22.3217 109.1514,22.0336" fill="none" style="stroke:#181818;stroke-width:0.5;"/></g><g class="link" data-entity-1="sns" data-entity-2="UC02" data-uid="lnk28" id="link_sns_UC02"><polygon fill="#181818" points="95.557,56.1648,90.7867,54.9425,93.0919,56.5813,91.4531,58.8866,95.557,56.1648" style="stroke:#181818;stroke-width:0.5;"/><path d="M37.8311,82.0215 C42.9244,76.8928 48.9861,71.8249 55.5,68.5 C67.7483,62.2482 79.0652,58.9514 92.5989,56.6646" fill="none" style="stroke:#181818;stroke-width:0.5;"/></g><g class="link" data-entity-1="sns" data-entity-2="UC03" data-uid="lnk29" id="link_sns_UC03"><polygon fill="#181818" points="96.1975,90.9459,91.4771,89.543,93.7184,91.2683,91.9931,93.5096,96.1975,90.9459" style="stroke:#181818;stroke-width:0.5;"/><path d="M37.8322,98.5381 C52.3942,96.6439 72.2819,94.0568 93.2226,91.3328" fill="none" style="stroke:#181818;stroke-width:0.5;"/></g><g class="link" data-entity-1="sns" data-entity-2="UC04" data-uid="lnk30" id="link_sns_UC04"><polygon fill="#181818" points="93.1409,109.6565,88.9365,107.0928,90.6618,109.3341,88.4205,111.0594,93.1409,109.6565" style="stroke:#181818;stroke-width:0.5;"/><path d="M37.8322,102.4619 C51.6885,104.2644 70.0857,106.6575 90.166,109.2696" fill="none" style="stroke:#181818;stroke-width:0.5;"/></g><g class="link" data-entity-1="sns" data-entity-2="UC05" data-uid="lnk31" id="link_sns_UC05"><polygon fill="#181818" points="85.097,143.5512,81.2392,140.4905,82.6763,142.9267,80.2401,144.3637,85.097,143.5512" style="stroke:#181818;stroke-width:0.5;"/><path d="M37.8978,118.8503 C42.9938,123.9738 49.0403,129.071 55.5,132.5 C64.6121,137.3369 71.9567,140.1615 82.1921,142.8018" fill="none" style="stroke:#181818;stroke-width:0.5;"/></g><g class="link" data-entity-1="sns" data-entity-2="UC06" data-uid="lnk32" id="link_sns_UC06"><polygon fill="#181818" points="96.687,184.4624,92.5238,181.8323,94.2133,184.1007,91.9449,185.7902,96.687,184.4624" style="stroke:#181818;stroke-width:0.5;"/><path d="M27.0099,120.5052 C31.4247,136.177 39.9393,157.2331 55.5,169 C67.2294,177.8697 79.2969,181.9192 93.7185,184.0283" fill="none" style="stroke:#181818;stroke-width:0.5;"/></g><g class="link" data-entity-1="rec" data-entity-2="UC07" data-uid="lnk33" id="link_rec_UC07"><polygon fill="#181818" points="76.2471,231.1024,71.3457,230.6269,73.8753,231.8924,72.6097,234.4219,76.2471,231.1024" style="stroke:#181818;stroke-width:0.5;"/><path d="M39.0228,252.9305 C43.8619,248.0616 49.491,243.3112 55.5,240 C61.9657,236.4372 66.1754,234.457 73.4009,232.0504" fill="none" style="stroke:#181818;stroke-width:0.5;"/></g><g class="link" data-entity-1="rec" data-entity-2="UC08" data-uid="lnk34" id="link_rec_UC08"><polygon fill="#181818" points="97.454,262.3714,92.7171,261.0252,94.9789,262.7235,93.2806,264.9853,97.454,262.3714" style="stroke:#181818;stroke-width:0.5;"/><path d="M41.5649,270.3231 C56.4375,268.2071 74.9119,265.5786 94.4839,262.794" fill="none" style="stroke:#181818;stroke-width:0.5;"/></g><g class="link" data-entity-1="rec" data-entity-2="UC09" data-uid="lnk35" id="link_rec_UC09"><polygon fill="#181818" points="77.2108,280.7485,73.0374,278.1346,74.7358,280.3963,72.474,282.0947,77.2108,280.7485" style="stroke:#181818;stroke-width:0.5;"/><path d="M41.5649,275.6769 C51.3903,277.0748 61.1137,278.4583 74.2408,280.3259" fill="none" style="stroke:#181818;stroke-width:0.5;"/></g><g class="link" data-entity-1="rec" data-entity-2="UC10" data-uid="lnk36" id="link_rec_UC10"><polygon fill="#181818" points="98.2877,323.4002,94.1393,320.7466,95.816,323.0244,93.5382,324.7011,98.2877,323.4002" style="stroke:#181818;stroke-width:0.5;"/><path d="M36.2229,293.0168 C41.5017,299.398 48.0805,305.8676 55.5,310 C68.4167,317.1941 80.8932,320.7559 95.3217,322.9493" fill="none" style="stroke:#181818;stroke-width:0.5;"/></g><g class="link" data-entity-1="UC11" data-entity-2="nurse" data-uid="lnk37" id="link_UC11_nurse"><polygon fill="#181818" points="221.1067,373.51,224.4257,377.1479,223.3965,374.5133,226.031,373.4842,221.1067,373.51" style="stroke:#181818;stroke-width:0.5;"/><path d="M223.8545,374.714 C229.4919,377.1842 232.1264,378.9446 237,382.5 C254.526,395.2857 266.1908,417.6358 272.8459,433.9523" fill="none" style="stroke:#181818;stroke-width:0.5;"/></g><g class="link" data-entity-1="UC12" data-entity-2="nurse" data-uid="lnk38" id="link_UC12_nurse"><polygon fill="#181818" points="210.1202,410.4219,213.9461,413.5223,212.5344,411.0714,214.9853,409.6596,210.1202,410.4219" style="stroke:#181818;stroke-width:0.5;"/><path d="M213.0172,411.2013 C222.2652,413.6892 228.5965,416.047 237,420 C247.8979,425.1264 258.5042,433.5341 266.4261,440.7059" fill="none" style="stroke:#181818;stroke-width:0.5;"/></g><g class="link" data-entity-1="UC13" data-entity-2="nurse" data-uid="lnk39" id="link_UC13_nurse"><polygon fill="#181818" points="193.6408,441.6987,197.8128,444.315,196.1157,442.0522,198.3784,440.3552,193.6408,441.6987" style="stroke:#181818;stroke-width:0.5;"/><path d="M196.6107,442.123 C222.4126,445.8089 249.5699,449.6886 266.4782,452.104" fill="none" style="stroke:#181818;stroke-width:0.5;"/></g><g class="link" data-entity-1="UC14" data-entity-2="nurse" data-uid="lnk40" id="link_UC14_nurse"><polygon fill="#181818" points="228.519,461.1261,233.2516,462.4871,230.9951,460.7817,232.7005,458.5252,228.519,461.1261" style="stroke:#181818;stroke-width:0.5;"/><path d="M231.4904,460.7128 C246.1805,458.6694 256.8484,457.1856 266.3544,455.8633" fill="none" style="stroke:#181818;stroke-width:0.5;"/></g><g class="link" data-entity-1="UC15" data-entity-2="nurse" data-uid="lnk41" id="link_UC15_nurse"><polygon fill="#181818" points="202.8299,506.6275,207.6507,507.6325,205.2736,506.0998,206.8063,503.7226,202.8299,506.6275" style="stroke:#181818;stroke-width:0.5;"/><path d="M205.7623,505.9942 C217.4752,503.4646 226.5095,500.3995 237,495 C248.3379,489.1643 258.7221,479.3626 266.4165,470.806" fill="none" style="stroke:#181818;stroke-width:0.5;"/></g><g class="link" data-entity-1="UC16" data-entity-2="nurse" data-uid="lnk42" id="link_UC16_nurse"><polygon fill="#181818" points="205.5975,542.6377,210.4453,543.5033,208.0249,542.0397,209.4885,539.6194,205.5975,542.6377" style="stroke:#181818;stroke-width:0.5;"/><path d="M208.5104,541.9201 C219.6615,539.173 227.7913,535.6038 237,529 C255.6346,515.6366 267.265,491.4572 273.6073,474.1636" fill="none" style="stroke:#181818;stroke-width:0.5;"/></g><g class="link" data-entity-1="UC17" data-entity-2="admin" data-uid="lnk43" id="link_UC17_admin"><polygon fill="#181818" points="206.5053,588.7277,210.3905,591.7534,208.9316,589.3303,211.3547,587.8714,206.5053,588.7277" style="stroke:#181818;stroke-width:0.5;"/><path d="M209.4168,589.4508 C219.9622,592.0699 227.6384,594.9755 237,600 C247.3884,605.5756 256.8695,614.503 264.2489,622.7822" fill="none" style="stroke:#181818;stroke-width:0.5;"/></g><g class="link" data-entity-1="UC18" data-entity-2="admin" data-uid="lnk44" id="link_UC18_admin"><polygon fill="#181818" points="227.7573,634.7906,231.8903,637.468,230.2267,635.1805,232.5142,633.5169,227.7573,634.7906" style="stroke:#181818;stroke-width:0.5;"/><path d="M230.7206,635.2585 C238.9107,636.5517 243.8289,637.3282 250.8715,638.4402" fill="none" style="stroke:#181818;stroke-width:0.5;"/></g><g class="link" data-entity-1="UC19" data-entity-2="admin" data-uid="lnk45" id="link_UC19_admin"><polygon fill="#181818" points="217.5335,652.8237,222.2904,654.0974,220.0029,652.4338,221.6665,650.1463,217.5335,652.8237" style="stroke:#181818;stroke-width:0.5;"/><path d="M220.4968,652.3558 C232.2837,650.4947 240.927,649.1299 250.8641,647.5609" fill="none" style="stroke:#181818;stroke-width:0.5;"/></g><g class="link" data-entity-1="UC20" data-entity-2="admin" data-uid="lnk46" id="link_UC20_admin"><polygon fill="#181818" points="228.2259,688.4027,233.1502,688.3633,230.5022,687.3691,231.4964,684.7212,228.2259,688.4027" style="stroke:#181818;stroke-width:0.5;"/><path d="M230.9575,687.1624 C233.9685,685.7953 234.173,685.5703 237,684 C246.6191,678.657 255.6656,670.6178 262.9376,663.0697" fill="none" style="stroke:#181818;stroke-width:0.5;"/></g><!--SRC=[ZLHDRzim3BtxLt0PC7H0C-Ix2J0CoB9ssA4TqA2zCpRZ2BKbGv8J1CF- -oZPIcMZ6tOo7_KeKkGptrKQynAXmBEgBPYIB4fCaeBs5gm2BVA3XKneIgrGCZ4lGbQeiOGAqnVCQMlF1O4xHfaN514mjKetntWYeyhuq1mmKoSXSzXZOIY9Zcf3AHg2Nmd0LqwIQrNBRACAfU7ztUtTxURMdIYTaMwzw-LeD5qalvD- -kQIDwW0TqhQnhShE8iBRa86suSjF1dI0q03HfhWVwIKAjS5OQm_urSdoUNfC7Z6D1KI7GNkkOqvbIGjRC_6KZdmjOJ7FMr6OtV5m1kFbFETdB7Bc0J61BRfWRAQannVS_JOqy2UmhEW4w04h2ebf7LLzCYpG9x11cLAnR_fyq2Vmy-THI7ZEY0bRSLUf6Yf5xS8SGjmtHD70gbQBaUQ7lqcq6zWRGot14x27kAwm3IDOENqOfSXTdbffplMW5gB8nOz-YhGL_1CMkpFdImVm8b0rkMkFvJng0raunxrIvl3YG6pSuyRHio67qdXdgJsFgQDW3rBwwz37GS9iB5EKpAcoNSWBBWnGd9q-LPS40CRwwmKikb7awStf77G0Xiy9FvPEiFDU2E8mi2LFLTq3JkDChk6GjcFlMk2HjXehy7ioEzqsm7JDyOz3kfWuuSnDVsVgCP19MnS9jsDbEpg9mlw64Vwg9Ycf6JrNptKNAcvXlWdD_qd1j6miL5oB_9QXw89N7yC_qPPqwDU_adGpMJKxWOmVYz0XXRXggxuo_tDVA-EtYQRVk8INZUJBzAl7kciuFxsVNkPiaPsUGew3sz4QM0u_E8tJWmcCPZ6O1Q3UGmMVjq5T1E3PGnM4HYFaiJ_0P-7mxPiB-SEd7RXh0ldNRY8OE9bu73pN3_V3bnr87V_5Vu1]--></g></svg>