<svg xmlns="http://www.w3.org/2000/svg" xmlns:xlink="http://www.w3.org/1999/xlink" contentStyleType="text/css" height="601px" preserveAspectRatio="none" style="width:947px;height:601px;background:#FFFFFF;" version="1.1" viewBox="0 0 947 601" width="947px" zoomAndPan="magnify"><title>Sequence Diagram - US14: Register Employee</title><defs/><g><text fill="#000000" font-family="sans-serif" font-size="14" font-weight="bold" lengthAdjust="spacing" textLength="308.1094" x="318.6687" y="30.1074">Sequence Diagram - US14: Register Employee</text><rect fill="#FFFFFF" height="376.4922" style="stroke:#181818;stroke-width:1.0;" width="10" x="44.2344" y="133.2422"/><rect fill="#FFFFFF" height="344.2012" style="stroke:#181818;stroke-width:1.0;" width="10" x="294.7813" y="156.5332"/><rect fill="#FFFFFF" height="281.6191" style="stroke:#181818;stroke-width:1.0;" width="10" x="482.5737" y="187.8242"/><rect fill="#FFFFFF" height="219.0371" style="stroke:#181818;stroke-width:1.0;" width="10" x="657.9199" y="219.1152"/><rect fill="#FFFFFF" height="31.291" style="stroke:#181818;stroke-width:1.0;" width="10" x="862.916" y="250.4063"/><rect fill="#FFFFFF" height="31.291" style="stroke:#181818;stroke-width:1.0;" width="10" x="862.916" y="312.9883"/><rect fill="#FFFFFF" height="31.291" style="stroke:#181818;stroke-width:1.0;" width="10" x="862.916" y="375.5703"/><line style="stroke:#181818;stroke-width:0.5;stroke-dasharray:5.0,5.0;" x1="49" x2="49" y1="123.2422" y2="518.7344"/><line style="stroke:#181818;stroke-width:0.5;stroke-dasharray:5.0,5.0;" x1="299.4712" x2="299.4712" y1="123.2422" y2="518.7344"/><line style="stroke:#181818;stroke-width:0.5;stroke-dasharray:5.0,5.0;" x1="487.0913" x2="487.0913" y1="123.2422" y2="518.7344"/><line style="stroke:#181818;stroke-width:0.5;stroke-dasharray:5.0,5.0;" x1="662.5063" x2="662.5063" y1="123.2422" y2="518.7344"/><line style="stroke:#181818;stroke-width:0.5;stroke-dasharray:5.0,5.0;" x1="867.3853" x2="867.3853" y1="123.2422" y2="518.7344"/><text fill="#000000" font-family="sans-serif" font-size="14" lengthAdjust="spacing" textLength="82.4688" x="5" y="119.7285">Administrator</text><ellipse cx="49.2344" cy="53.1211" fill="#E2E2F0" rx="8" ry="8" style="stroke:#181818;stroke-width:0.5;"/><path d="M49.2344,61.1211 L49.2344,88.1211 M36.2344,69.1211 L62.2344,69.1211 M49.2344,88.1211 L36.2344,103.1211 M49.2344,88.1211 L62.2344,103.1211 " fill="none" style="stroke:#181818;stroke-width:0.5;"/><text fill="#000000" font-family="sans-serif" font-size="14" lengthAdjust="spacing" textLength="82.4688" x="5" y="532.8418">Administrator</text><ellipse cx="49.2344" cy="544.8555" fill="#E2E2F0" rx="8" ry="8" style="stroke:#181818;stroke-width:0.5;"/><path d="M49.2344,552.8555 L49.2344,579.8555 M36.2344,560.8555 L62.2344,560.8555 M49.2344,579.8555 L36.2344,594.8555 M49.2344,579.8555 L62.2344,594.8555 " fill="none" style="stroke:#181818;stroke-width:0.5;"/><rect fill="#E2E2F0" height="32.6211" rx="2.5" ry="2.5" style="stroke:#181818;stroke-width:0.5;" width="162.6201" x="218.4712" y="89.6211"/><text fill="#000000" font-family="sans-serif" font-size="14" lengthAdjust="spacing" textLength="148.6201" x="225.4712" y="111.7285">:RegisterEmployeeView</text><rect fill="#E2E2F0" height="32.6211" rx="2.5" ry="2.5" style="stroke:#181818;stroke-width:0.5;" width="162.6201" x="218.4712" y="517.7344"/><text fill="#000000" font-family="sans-serif" font-size="14" lengthAdjust="spacing" textLength="148.6201" x="225.4712" y="539.8418">:RegisterEmployeeView</text><rect fill="#E2E2F0" height="32.6211" rx="2.5" ry="2.5" style="stroke:#181818;stroke-width:0.5;" width="192.9648" x="391.0913" y="89.6211"/><text fill="#000000" font-family="sans-serif" font-size="14" lengthAdjust="spacing" textLength="178.9648" x="398.0913" y="111.7285">:RegisterEmployeeController</text><rect fill="#E2E2F0" height="32.6211" rx="2.5" ry="2.5" style="stroke:#181818;stroke-width:0.5;" width="192.9648" x="391.0913" y="517.7344"/><text fill="#000000" font-family="sans-serif" font-size="14" lengthAdjust="spacing" textLength="178.9648" x="398.0913" y="539.8418">:RegisterEmployeeController</text><rect fill="#E2E2F0" height="32.6211" rx="2.5" ry="2.5" style="stroke:#181818;stroke-width:0.5;" width="126.8271" x="599.5063" y="89.6211"/><text fill="#000000" font-family="sans-serif" font-size="14" lengthAdjust="spacing" textLength="112.8271" x="606.5063" y="111.7285">:EmployeeService</text><rect fill="#E2E2F0" height="32.6211" rx="2.5" ry="2.5" style="stroke:#181818;stroke-width:0.5;" width="126.8271" x="599.5063" y="517.7344"/><text fill="#000000" font-family="sans-serif" font-size="14" lengthAdjust="spacing" textLength="112.8271" x="606.5063" y="539.8418">:EmployeeService</text><rect fill="#E2E2F0" height="32.6211" rx="2.5" ry="2.5" style="stroke:#181818;stroke-width:0.5;" width="147.0615" x="794.3853" y="89.6211"/><text fill="#000000" font-family="sans-serif" font-size="14" lengthAdjust="spacing" textLength="133.0615" x="801.3853" y="111.7285">:EmployeeRepository</text><rect fill="#E2E2F0" height="32.6211" rx="2.5" ry="2.5" style="stroke:#181818;stroke-width:0.5;" width="147.0615" x="794.3853" y="517.7344"/><text fill="#000000" font-family="sans-serif" font-size="14" lengthAdjust="spacing" textLength="133.0615" x="801.3853" y="539.8418">:EmployeeRepository</text><rect fill="#FFFFFF" height="376.4922" style="stroke:#181818;stroke-width:1.0;" width="10" x="44.2344" y="133.2422"/><rect fill="#FFFFFF" height="344.2012" style="stroke:#181818;stroke-width:1.0;" width="10" x="294.7813" y="156.5332"/><rect fill="#FFFFFF" height="281.6191" style="stroke:#181818;stroke-width:1.0;" width="10" x="482.5737" y="187.8242"/><rect fill="#FFFFFF" height="219.0371" style="stroke:#181818;stroke-width:1.0;" width="10" x="657.9199" y="219.1152"/><rect fill="#FFFFFF" height="31.291" style="stroke:#181818;stroke-width:1.0;" width="10" x="862.916" y="250.4063"/><rect fill="#FFFFFF" height="31.291" style="stroke:#181818;stroke-width:1.0;" width="10" x="862.916" y="312.9883"/><rect fill="#FFFFFF" height="31.291" style="stroke:#181818;stroke-width:1.0;" width="10" x="862.916" y="375.5703"/><polygon fill="#181818" points="282.7813,152.5332,292.7813,156.5332,282.7813,160.5332,286.7813,156.5332" style="stroke:#181818;stroke-width:1.0;"/><line style="stroke:#181818;stroke-width:1.0;" x1="54.2344" x2="288.7813" y1="156.5332" y2="156.5332"/><text fill="#000000" font-family="sans-serif" font-size="13" font-weight="bold" lengthAdjust="spacing" textLength="7.23" x="61.2344" y="151.2705">1</text><text fill="#000000" font-family="sans-serif" font-size="13" lengthAdjust="spacing" textLength="210.3169" x="72.4644" y="151.2705">Submete dados do novo empregado</text><polygon fill="#181818" points="470.5737,183.8242,480.5737,187.8242,470.5737,191.8242,474.5737,187.8242" style="stroke:#181818;stroke-width:1.0;"/><line style="stroke:#181818;stroke-width:1.0;" x1="304.7813" x2="476.5737" y1="187.8242" y2="187.8242"/><text fill="#000000" font-family="sans-serif" font-size="13" font-weight="bold" lengthAdjust="spacing" textLength="7.23" x="311.7813" y="182.5615">2</text><text fill="#000000" font-family="sans-serif" font-size="13" lengthAdjust="spacing" textLength="135.1162" x="323.0112" y="182.5615">registerEmployee(data)</text><polygon fill="#181818" points="645.9199,215.1152,655.9199,219.1152,645.9199,223.1152,649.9199,219.1152" style="stroke:#181818;stroke-width:1.0;"/><line style="stroke:#181818;stroke-width:1.0;" x1="492.5737" x2="651.9199" y1="219.1152" y2="219.1152"/><text fill="#000000" font-family="sans-serif" font-size="13" font-weight="bold" lengthAdjust="spacing" textLength="7.23" x="499.5737" y="213.8525">3</text><text fill="#000000" font-family="sans-serif" font-size="13" lengthAdjust="spacing" textLength="135.1162" x="510.8037" y="213.8525">registerEmployee(data)</text><polygon fill="#181818" points="850.916,246.4063,860.916,250.4063,850.916,254.4063,854.916,250.4063" style="stroke:#181818;stroke-width:1.0;"/><line style="stroke:#181818;stroke-width:1.0;" x1="667.9199" x2="856.916" y1="250.4063" y2="250.4063"/><text fill="#000000" font-family="sans-serif" font-size="13" font-weight="bold" lengthAdjust="spacing" textLength="7.23" x="674.9199" y="245.1436">4</text><text fill="#000000" font-family="sans-serif" font-size="13" lengthAdjust="spacing" textLength="108.3608" x="686.1499" y="245.1436">findByEmail(email)</text><polygon fill="#181818" points="678.9199,277.6973,668.9199,281.6973,678.9199,285.6973,674.9199,281.6973" style="stroke:#181818;stroke-width:1.0;"/><line style="stroke:#181818;stroke-width:1.0;stroke-dasharray:2.0,2.0;" x1="672.9199" x2="866.916" y1="281.6973" y2="281.6973"/><text fill="#000000" font-family="sans-serif" font-size="13" font-weight="bold" lengthAdjust="spacing" textLength="7.23" x="684.9199" y="276.4346">5</text><text fill="#000000" font-family="sans-serif" font-size="13" lengthAdjust="spacing" textLength="28.8945" x="696.1499" y="276.4346">(null)</text><polygon fill="#181818" points="850.916,308.9883,860.916,312.9883,850.916,316.9883,854.916,312.9883" style="stroke:#181818;stroke-width:1.0;"/><line style="stroke:#181818;stroke-width:1.0;" x1="667.9199" x2="856.916" y1="312.9883" y2="312.9883"/><text fill="#000000" font-family="sans-serif" font-size="13" font-weight="bold" lengthAdjust="spacing" textLength="7.23" x="674.9199" y="307.7256">6</text><text fill="#000000" font-family="sans-serif" font-size="13" lengthAdjust="spacing" textLength="164.7661" x="686.1499" y="307.7256">findByPhoneNumber(phone)</text><polygon fill="#181818" points="678.9199,340.2793,668.9199,344.2793,678.9199,348.2793,674.9199,344.2793" style="stroke:#181818;stroke-width:1.0;"/><line style="stroke:#181818;stroke-width:1.0;stroke-dasharray:2.0,2.0;" x1="672.9199" x2="866.916" y1="344.2793" y2="344.2793"/><text fill="#000000" font-family="sans-serif" font-size="13" font-weight="bold" lengthAdjust="spacing" textLength="7.23" x="684.9199" y="339.0166">7</text><text fill="#000000" font-family="sans-serif" font-size="13" lengthAdjust="spacing" textLength="28.8945" x="696.1499" y="339.0166">(null)</text><polygon fill="#181818" points="850.916,371.5703,860.916,375.5703,850.916,379.5703,854.916,375.5703" style="stroke:#181818;stroke-width:1.0;"/><line style="stroke:#181818;stroke-width:1.0;" x1="667.9199" x2="856.916" y1="375.5703" y2="375.5703"/><text fill="#000000" font-family="sans-serif" font-size="13" font-weight="bold" lengthAdjust="spacing" textLength="7.23" x="674.9199" y="370.3076">8</text><text fill="#000000" font-family="sans-serif" font-size="13" lengthAdjust="spacing" textLength="117.7744" x="686.1499" y="370.3076">save(newEmployee)</text><polygon fill="#181818" points="678.9199,402.8613,668.9199,406.8613,678.9199,410.8613,674.9199,406.8613" style="stroke:#181818;stroke-width:1.0;"/><line style="stroke:#181818;stroke-width:1.0;stroke-dasharray:2.0,2.0;" x1="672.9199" x2="866.916" y1="406.8613" y2="406.8613"/><text fill="#000000" font-family="sans-serif" font-size="13" font-weight="bold" lengthAdjust="spacing" textLength="7.23" x="684.9199" y="401.5986">9</text><text fill="#000000" font-family="sans-serif" font-size="13" lengthAdjust="spacing" textLength="92.498" x="696.1499" y="401.5986">savedEmployee</text><polygon fill="#181818" points="503.5737,434.1523,493.5737,438.1523,503.5737,442.1523,499.5737,438.1523" style="stroke:#181818;stroke-width:1.0;"/><line style="stroke:#181818;stroke-width:1.0;stroke-dasharray:2.0,2.0;" x1="497.5737" x2="661.9199" y1="438.1523" y2="438.1523"/><text fill="#000000" font-family="sans-serif" font-size="13" font-weight="bold" lengthAdjust="spacing" textLength="14.46" x="509.5737" y="432.8896">10</text><text fill="#000000" font-family="sans-serif" font-size="13" lengthAdjust="spacing" textLength="83.8081" x="528.0337" y="432.8896">employeeDTO</text><polygon fill="#181818" points="315.7813,465.4434,305.7813,469.4434,315.7813,473.4434,311.7813,469.4434" style="stroke:#181818;stroke-width:1.0;"/><line style="stroke:#181818;stroke-width:1.0;stroke-dasharray:2.0,2.0;" x1="309.7813" x2="486.5737" y1="469.4434" y2="469.4434"/><text fill="#000000" font-family="sans-serif" font-size="13" font-weight="bold" lengthAdjust="spacing" textLength="14.46" x="321.7813" y="464.1807">11</text><text fill="#000000" font-family="sans-serif" font-size="13" lengthAdjust="spacing" textLength="111.998" x="340.2412" y="464.1807">operationSuccess()</text><polygon fill="#181818" points="65.2344,496.7344,55.2344,500.7344,65.2344,504.7344,61.2344,500.7344" style="stroke:#181818;stroke-width:1.0;"/><line style="stroke:#181818;stroke-width:1.0;stroke-dasharray:2.0,2.0;" x1="59.2344" x2="298.7813" y1="500.7344" y2="500.7344"/><text fill="#000000" font-family="sans-serif" font-size="13" font-weight="bold" lengthAdjust="spacing" textLength="14.46" x="71.2344" y="495.4717">12</text><text fill="#000000" font-family="sans-serif" font-size="13" lengthAdjust="spacing" textLength="169.8125" x="89.6943" y="495.4717">Exibe mensagem de sucesso</text><!--SRC=[XP9DJoCn38Rl-HLMBqmFinKIfpcin9PU5yJiSdSJCqJA5_aOwBzV9zDI2QZs4iNsO-UrdQkNd4CQDfjWqELYpG_fxIRHQo4dgLSQfuXMYAop8HYFVhXR_D33t_7wPe17cdJA565dW_478Y6mP8yownapWNVDTiNkAN9CPXzXTQkiTfmNaSqLO8Bc4G5Zrb87LWIhuLJxLFf9qrk3PxxyXzrwbwCtXfRosnpDfumJELASjQI6ZN6-G3rIy4cpsaC3gzcwMRfSrBSJ-fzD7mmmbhqbZYfKFe7ouFpiWMo8DB5BD8pnAexn-Ac5Jc76jH0jp1YBkqnTmUts-gRdZJnHrCzQ8XJ7RV3R96ec5wYYkSApTkhNOMTHcuxgkHOjqd-yqRbYsFjTsiEBT_IxRRCBzNufcHLjeqOWc0f6XO2rVRPT_avKmfawHs-djhwKhO0wVxAMVPuT7GDtV-wFypglmGVYVwQz6ukKb5AtFawUaMLb0-pUzPx0aaiuaGL5a4fblVW7]--></g></svg>